<?xml version="1.0" encoding="UTF-8" standalone="no"?><!DOCTYPE svg PUBLIC "-//W3C//DTD SVG 1.1//EN" "http://www.w3.org/Graphics/SVG/1.1/DTD/svg11.dtd"><svg width="100%" height="100%" viewBox="0 0 98 98" version="1.1" xmlns="http://www.w3.org/2000/svg" xmlns:xlink="http://www.w3.org/1999/xlink" xml:space="preserve" xmlns:serif="http://www.serif.com/" style="fill-rule:evenodd;clip-rule:evenodd;stroke-linecap:round;stroke-linejoin:round;stroke-miterlimit:1.5;"><rect x="48.318" y="18.641" width="2.709" height="18.9" style="fill:#5d5d5d;"/><ellipse cx="49.616" cy="15.746" rx="6.521" ry="6.596" style="fill:#cdd800;"/><path d="M81.326,53.422c0,-0.643 -0.523,-1.166 -1.167,-1.166l-2.333,0c-0.644,0 -1.167,0.523 -1.167,1.166l0,11.319c0,0.644 0.523,1.167 1.167,1.167l2.333,0c0.644,0 1.167,-0.523 1.167,-1.167l0,-11.319Z" style="fill:#676767;"/><path d="M55.324,34.667c0.644,0 1.168,-0.524 1.168,-1.168l0,-2.336c0,-0.645 -0.524,-1.168 -1.168,-1.168l-11.302,0c-0.644,0 -1.168,0.523 -1.168,1.168l0,2.336c0,0.644 0.524,1.168 1.168,1.168l11.302,0Z" style="fill:#676767;"/><path d="M22.149,53.345c0,-0.644 -0.523,-1.167 -1.167,-1.167l-2.334,0c-0.644,0 -1.166,0.523 -1.166,1.167l0,11.319c0,0.644 0.522,1.166 1.166,1.166l2.334,0c0.644,0 1.167,-0.522 1.167,-1.166l0,-11.319Z" style="fill:#676767;"/><path d="M78.175,59.372c0,-14.243 -12.915,-25.807 -28.823,-25.807c-15.908,0 -28.824,11.564 -28.824,25.807c0,4.403 1.258,8.732 3.654,12.576l-2.539,15.469l16.839,-4.143c3.452,1.258 7.143,1.905 10.87,1.905c15.908,0 28.823,-11.563 28.823,-25.807Z" style="fill:#cdd800;stroke:#fff;stroke-width:0.32px;"/><path d="M73.325,59.116c0,-11.728 -10.734,-21.249 -23.955,-21.249c-13.22,0 -23.954,9.521 -23.954,21.249c0,3.847 1.177,7.622 3.407,10.922l-3.407,12.17l13.389,-4.022c3.287,1.433 6.902,2.179 10.565,2.179c13.221,0 23.955,-9.522 23.955,-21.249Z" style="fill:#b1b2a3;"/><g><ellipse cx="58.807" cy="51.715" rx="3.166" ry="6.164" style="fill:#fff;stroke:#f1f1f1;stroke-width:2.3px;"/><ellipse cx="58.723" cy="51.797" rx="2.932" ry="4.559" style="fill:#5d5d5d;stroke:#f1f1f1;stroke-width:2.3px;"/></g><g><ellipse cx="39.679" cy="51.518" rx="3.166" ry="6.164" style="fill:#fff;stroke:#f1f1f1;stroke-width:2.3px;"/><ellipse cx="39.594" cy="51.599" rx="2.932" ry="4.559" style="fill:#5d5d5d;stroke:#f1f1f1;stroke-width:2.3px;"/></g><path d="M39.772,51.638l-0.251,-4.668l1.352,0.441l-1.101,4.227Z" style="fill:#f1f1f1;"/><path d="M58.938,51.87l-0.251,-4.668l1.352,0.441l-1.101,4.227Z" style="fill:#f1f1f1;"/><path d="M34.69,65.442c0.004,3.152 4.374,5.907 10.662,6.723l7.543,-0.011c6.285,-0.834 10.646,-3.601 10.641,-6.754l-28.846,0.042Z" style="fill:#f9eaea;stroke:#7b7b7b;stroke-width:1.67px;"/></svg>