<?xml version="1.0" encoding="UTF-8" standalone="no"?><!DOCTYPE svg PUBLIC "-//W3C//DTD SVG 1.1//EN" "http://www.w3.org/Graphics/SVG/1.1/DTD/svg11.dtd"><svg width="100%" height="100%" viewBox="0 0 98 98" version="1.1" xmlns="http://www.w3.org/2000/svg" xmlns:xlink="http://www.w3.org/1999/xlink" xml:space="preserve" xmlns:serif="http://www.serif.com/" style="fill-rule:evenodd;clip-rule:evenodd;stroke-linecap:round;stroke-linejoin:round;stroke-miterlimit:1.5;"><path d="M96.379,36.691c0,-0.958 -0.778,-1.736 -1.736,-1.736l-3.472,0c-0.958,0 -1.736,0.778 -1.736,1.736l0,20.31c0,0.958 0.778,1.735 1.736,1.735l3.472,0c0.958,0 1.736,-0.777 1.736,-1.735l0,-20.31Z" style="fill:#676767;"/><path d="M8.332,36.556c0,-0.958 -0.778,-1.736 -1.736,-1.736l-3.472,0c-0.958,0 -1.736,0.778 -1.736,1.736l0,20.31c0,0.958 0.778,1.736 1.736,1.736l3.472,0c0.958,0 1.736,-0.778 1.736,-1.736l0,-20.31Z" style="fill:#676767;"/><path d="M91.691,47.352c0,-24.812 -19.216,-44.956 -42.885,-44.956c-23.669,0 -42.885,20.144 -42.885,44.956c0,7.669 1.871,15.21 5.436,21.907l-3.777,26.947l25.053,-7.218c5.136,2.192 10.628,3.319 16.173,3.319c23.669,0 42.885,-20.144 42.885,-44.955Z" style="fill:#cdd800;stroke:#fff;stroke-width:0.32px;"/><path d="M84.474,46.905c0,-20.43 -15.97,-37.016 -35.64,-37.016c-19.671,0 -35.641,16.586 -35.641,37.016c0,6.702 1.752,13.278 5.069,19.027l-5.069,21.199l19.92,-7.006c4.892,2.497 10.27,3.796 15.721,3.796c19.67,0 35.64,-16.587 35.64,-37.016Z" style="fill:#b1b2a3;"/><g><ellipse cx="62.875" cy="34.013" rx="4.711" ry="10.737" style="fill:#fff;stroke:#f1f1f1;stroke-width:2.3px;"/><ellipse cx="62.748" cy="34.155" rx="4.363" ry="7.942" style="fill:#5d5d5d;stroke:#f1f1f1;stroke-width:2.3px;"/></g><g><ellipse cx="34.414" cy="33.67" rx="4.711" ry="10.737" style="fill:#fff;stroke:#f1f1f1;stroke-width:2.3px;"/><ellipse cx="34.288" cy="33.811" rx="4.363" ry="7.942" style="fill:#5d5d5d;stroke:#f1f1f1;stroke-width:2.3px;"/></g><path d="M34.552,33.878l-0.372,-8.131l2.01,0.768l-1.638,7.363Z" style="fill:#f1f1f1;"/><path d="M63.068,34.282l-0.372,-8.131l2.011,0.768l-1.639,7.363Z" style="fill:#f1f1f1;"/><path d="M26.991,57.925c0.007,5.492 6.508,10.291 15.864,11.711l11.223,-0.019c9.351,-1.452 15.84,-6.273 15.832,-11.765l-42.919,0.073Z" style="fill:#f9eaea;stroke:#7b7b7b;stroke-width:1.67px;"/></svg>